<?xml version="1.0" encoding="utf-8"?>
<svg version="1.1" xmlns="http://www.w3.org/2000/svg" x="0px" y="0px" viewBox="0 0 256 256"
     enable-background="new 0 0 256 256" xml:space="preserve">
<metadata> Svg Vector Icons : http://www.onlinewebfonts.com/icon </metadata>
    <g><g><g><path fill="#0a549f" d="M45.9,56.6c-2,0-3.8,0.7-4.6,2.1c-0.9,1.5-0.7,3.3,0.2,5.2l23,39.8c0,0.1,0,0.1,0,0.2l-36.1,63.9c-0.9,1.9-0.9,3.8,0,5.2c0.9,1.4,2.4,2.3,4.4,2.3h34c5.1,0,7.6-3.5,9.3-6.6c0,0,35.4-62.5,36.7-65c-0.1-0.2-23.4-40.8-23.4-40.8c-1.7-3-4.2-6.4-9.5-6.4L45.9,56.6L45.9,56.6z"/><path
            fill="#0a549f"
            d="M188.8,10c-5.1,0-7.3,3.2-9.1,6.5c0,0-73.3,130-75.7,134.3c0.1,0.2,48.3,88.7,48.3,88.7c1.7,3,4.3,6.5,9.5,6.5h34c2,0,3.6-0.8,4.5-2.2c0.9-1.5,0.9-3.4-0.1-5.2l-47.9-87.7c0-0.1,0-0.1,0-0.2l75.4-133.2c0.9-1.9,1-3.8,0.1-5.2c-0.9-1.4-2.5-2.2-4.5-2.2H188.8L188.8,10z"/></g></g></g>
</svg>